<svg xmlns="http://www.w3.org/2000/svg" xml:space="preserve" width="1500" height="1500" data-id="lg_jq5E9qYRpe7qv2IJLC" data-version="1" viewBox="0 0 1500 1500"><path fill="#ababab" stroke="transparent" d="M0 0h1500v1500H0z"/><g data-padding="20"><g transform="translate(-153.662 -159.34)scale(1.18405)"><path fill="#313131" d="M762.947 590.864a279.754 176.12 0 1 0 0 352.24 279.754 176.12 0 1 0 0-352.24"/><path fill="none" stroke="#ababab" stroke-width="2.5" d="M194.223 103.822a140.58 68 0 1 0 0 136 140.58 68 0 1 0 0-136Z" paint-order="stroke" transform="matrix(1.87 0 0 2.34 400 365.93)"/><path fill="#454545" d="m848.178 809.289-.054-1.485a84 84 0 0 0-.729-8.505c-8.72-66.69-84.915-162.027-84.915-162.027s-76.167 95.31-84.86 162.027a86 86 0 0 0-.757 8.505v.35l-.054 1.135v3.564c.986 47.33 40.15 84.902 87.48 83.916 47.331-.985 84.902-40.15 83.916-87.48M739.72 856.377c-7.155 4.698-19.224.405-25.353-6.885-5.049-5.994-9.936-15.444-12.906-29.457-6.615-31.023 23.085-81.81 23.085-81.81-6.318 22.626-6.453 44.145-1.242 61.992 5.103 17.523 15.39 31.536 19.062 36.315 6.048 7.91 4.51 15.174-2.646 19.845"/><rect width="93.72" height="45.2" x="316.337" y="379.464" fill="none" rx="0" ry="0" transform="translate(399.9 318.57)"/><path fill="#ababab" d="M727.707 706.534q-2.24 0-3.68 1.06t-1.44 3.34q0 1.04.28 1.84t.94 1.44 1.74 1.22 2.68 1.18q1.56.6 2.96 1.32t2.46 1.76 1.68 2.52.62 3.6q0 1.64-.66 3.12t-1.84 2.58-2.82 1.74-3.6.64q-2 0-3.5-.5t-2.58-1.32-1.78-1.86-1.1-2.16l2.88-1.08q.28.8.74 1.56t1.18 1.34 1.74.94 2.46.36q.96 0 1.92-.26t1.74-.86 1.26-1.6.48-2.44q0-1.52-.38-2.52t-1.2-1.76-2.14-1.36-3.16-1.36q-3.24-1.32-4.78-3.2t-1.54-4.64q0-1.52.56-2.86t1.64-2.32 2.62-1.54 3.54-.56q3.4 0 5.32 1.38t2.96 3.74l-2.96 1.04q-.68-1.68-1.88-2.6t-3.36-.92m16.76 26.76h-4v-4h4Zm20.12-6 2.92 1.24q-1.12 2.4-3.08 3.88t-5.16 1.48q-1.6 0-3.38-.62t-3.3-2.3-2.52-4.6-1-7.48q0-4.48.96-7.4t2.46-4.6 3.3-2.34 3.52-.66q1.56 0 2.82.4t2.22 1.06 1.66 1.54 1.14 1.84l-3 1.16q-.64-1.64-1.78-2.48t-3.06-.84q-1.36 0-2.58.58t-2.14 2-1.46 3.78-.54 5.96q0 3.56.56 5.92t1.5 3.76 2.16 2 2.54.6q2.2 0 3.36-1.1t1.88-2.78m11.56 6h-4v-4h4Zm24.32 0h-3.6l-2.12-7.72h-10.08l-2.16 7.72h-3.36l8.6-28.8h4.16Zm-10.68-25.68-4.36 15.36h8.6Zm17.68 25.68h-4v-4h4Z"/><rect width="289.183" height="45.2" x="218.606" y="379.464" fill="none" rx="0" ry="0" transform="translate(399.9 398.91)"/><path fill="#ababab" d="M624.697 784.834h3.4v25.84h11.08v2.96h-14.48Zm37 28.8h-3.6l-2.12-7.72h-10.08l-2.16 7.72h-3.36l8.6-28.8h4.16Zm-10.68-25.68-4.36 15.36h8.6Zm43.92 9.8v15.88h-2.64l-.2-1.8q-1.08 1.24-2.54 1.8t-3.06.56q-2 0-3.74-.76t-3.04-2.5-2.06-4.62-.76-7.12q0-4.28.86-7.16t2.3-4.62 3.3-2.48 3.86-.74q2.96 0 4.8 1.18t2.88 3.34l-2.88 1.32q-.68-1.52-1.76-2.38t-2.92-.86q-1.56 0-2.86.68t-2.2 2.16-1.4 3.84-.5 5.72q0 3.56.46 5.92t1.34 3.8 2.08 2.04 2.72.6q3.32 0 4.92-2.4v-8.68h-4.92v-2.72Zm5.88 1.48q0-4.2.88-7.06t2.32-4.62 3.3-2.54 3.86-.78 3.86.78 3.3 2.54 2.32 4.62.88 7.06-.88 7.06-2.32 4.62-3.32 2.54-3.84.78q-2 0-3.86-.78t-3.3-2.54-2.32-4.62-.88-7.06m3.48 0q0 6.08 1.72 9.24t5.16 3.16 5.16-3.16 1.72-9.24-1.72-9.24-5.16-3.16-5.16 3.16-1.72 9.24m37.24-14.4v2.96h-7.04v25.84h-3.4v-25.84h-6.96v-2.96Zm20.52 28.8h-3.6l-2.12-7.72h-10.08l-2.16 7.72h-3.36l8.6-28.8h4.16Zm-10.68-25.68-4.36 15.36h8.6Zm26.68-3.12h5.12q2.84 0 5.22.66t4.08 2.3 2.66 4.42.96 7.02q0 4.12-.94 6.88t-2.66 4.44-4.08 2.38-5.16.7h-5.2Zm5.08 2.52h-1.68v23.64h1.76q2.44 0 4.22-.62t2.94-2.02 1.72-3.64.56-5.48q0-6.2-2.28-9.04t-7.24-2.84m32.16 10.32v2.64h-9.4v10.6h10.6v2.72h-14v-28.8h14v2.72h-10.6v10.12Zm18.4 1.56q0-4.2.88-7.06t2.32-4.62 3.3-2.54 3.86-.78 3.86.78 3.3 2.54 2.32 4.62.88 7.06-.88 7.06-2.32 4.62-3.32 2.54-3.84.78q-2 0-3.86-.78t-3.3-2.54-2.32-4.62-.88-7.06m3.48 0q0 6.08 1.72 9.24t5.16 3.16 5.16-3.16 1.72-9.24-1.72-9.24-5.16-3.16-5.16 3.16-1.72 9.24m41.72 14.4h-4.04l-6.44-11.28h-4.2v11.28h-3.4v-28.8h6q4.68 0 7.32 2.14t2.64 6.74q0 1.64-.4 2.9t-1.08 2.22-1.6 1.64-1.96 1.12Zm-12.12-26.2h-2.56v12.32h2.68q3.12 0 4.76-1.5t1.64-4.54-1.48-4.66-5.04-1.62m15.12 11.8q0-4.2.88-7.06t2.32-4.62 3.3-2.54 3.86-.78 3.86.78 3.3 2.54 2.32 4.62.88 7.06-.88 7.06-2.32 4.62-3.32 2.54-3.84.78q-2 0-3.86-.78t-3.3-2.54-2.32-4.62-.88-7.06m3.48 0q0 6.08 1.72 9.24t5.16 3.16 5.16-3.16 1.72-9.24-1.72-9.24-5.16-3.16-5.16 3.16-1.72 9.24"/></g><path fill="transparent" stroke="transparent" stroke-width="1.221" d="M348.237 533.88h803.526v429.85H348.237z"/></g></svg>