<svg xmlns="http://www.w3.org/2000/svg" xml:space="preserve" width="1500" height="1500" data-id="lg_xcKbuBhSY4DHJFOj30" data-version="1" viewBox="0 0 1500 1500"><path fill="#111" stroke="transparent" d="M0 0h1500v1500H0z"/><g data-padding="20"><g transform="translate(-289.326 -285.703)scale(1.35487)"><g transform="matrix(.68 0 0 .68 400.38 208.12)"><linearGradient id="a" x1="0" x2="1" y1="0" y2="0" gradientUnits="objectBoundingBox"><stop offset="0%" stop-color="#9c7945"/><stop offset="49.8%" stop-color="#faf3aa"/><stop offset="100%" stop-color="#9c7945"/></linearGradient><path fill="url(#a)" d="M947.806 614.578h-64.45c-3.386-17.367-18.566-29.926-36.26-30h-9.44c-1.15-19-17.25-34-36.87-34h-8.8c-19.64 0-35.73 15-36.88 34h-9.44c-17.694.074-32.874 12.633-36.26 30h-64.9c-14.6.137-26.362 12.02-26.35 26.62v367.4a26.04 26.04 0 0 0 26.35 25.98h303.3a26.04 26.04 0 0 0 26.35-25.99v-367.4c.006-14.598-11.753-26.473-26.35-26.61m-155.83-48h8.8c10.8 0 19.72 8 20.83 18h-50.45c1.1-10 10.02-18 20.82-18m-66.82 55.28c0-11.56 8.96-21.28 20.5-21.28h101.44c11.65.158 21.023 9.628 21.06 21.28v31.72h-143Zm150.89 47.72a8.26 8.26 0 0 0 8.11-8.18v-2.82h41v328h-258v-328h42v2.82c0 4.42 3.14 8.18 7.56 8.18Zm82.11 339.02a10.03 10.03 0 0 1-10.35 9.98h-303.3a10.03 10.03 0 0 1-10.35-9.99v-367.4c-.028-5.77 4.58-10.495 10.35-10.61h64.65v12h-50.27a7.4 7.4 0 0 0-7.73 7.52v344.05c0 4.42 3.31 8.43 7.73 8.43h274.54c4.42 0 7.73-4 7.73-8.43v-344.05a7.4 7.4 0 0 0-7.73-7.52h-49.27v-12h63.65c5.773.115 10.384 4.846 10.35 10.62Z" transform="translate(-256 -256)"/></g><g transform="matrix(.68 0 0 .68 362.858 282.92)"><linearGradient id="b" x1="0" x2="1" y1="0" y2="0" gradientUnits="objectBoundingBox"><stop offset="0%" stop-color="#9c7945"/><stop offset="49.8%" stop-color="#faf3aa"/><stop offset="100%" stop-color="#9c7945"/></linearGradient><path fill="url(#b)" d="M695.676 910.578h90.6a8 8 0 1 0 0-16h-90.6a8 8 0 1 0 0 16" transform="translate(-200.82 -366)"/></g><g transform="matrix(.68 0 0 .68 400.38 307.4)"><linearGradient id="c" x1="0" x2="1" y1="0" y2="0" gradientUnits="objectBoundingBox"><stop offset="0%" stop-color="#9c7945"/><stop offset="49.8%" stop-color="#faf3aa"/><stop offset="100%" stop-color="#9c7945"/></linearGradient><path fill="url(#c)" d="M687.676 938.578a8 8 0 0 0 8 8h200.96a8 8 0 1 0 0-16h-200.96a8 8 0 0 0-8 8" transform="translate(-256 -402)"/></g><g transform="matrix(.68 0 0 .68 400.38 197.349)"><linearGradient id="d" x1="0" x2="1" y1="0" y2="0" gradientUnits="objectBoundingBox"><stop offset="0%" stop-color="#9c7945"/><stop offset="49.8%" stop-color="#faf3aa"/><stop offset="100%" stop-color="#9c7945"/></linearGradient><path fill="url(#d)" d="M796.156 865.898a70.5 70.5 0 0 0 60.91-35.53c11.61-20.26 11.72-44 .29-63.5l-.4-.62-54.3-75.5a7.9 7.9 0 0 0-6.5-3.17 7.9 7.9 0 0 0-6.49 3.17l-54.3 75.36-.42.6c-11.44 19.63-11.3 43.46.36 63.76a70.5 70.5 0 0 0 60.85 35.43m-47.57-90.84 47.56-66.1 47.58 66.3c8.44 14.66 8.25 31.82-.54 47.16a53.97 53.97 0 0 1-94 .06c-8.85-15.4-9.06-32.65-.6-47.42" transform="translate(-256 -240.16)"/></g><g transform="matrix(.68 0 0 .68 411.3 222.19)"><linearGradient id="e" x1="0" x2="1" y1="0" y2="0" gradientUnits="objectBoundingBox"><stop offset="0%" stop-color="#9c7945"/><stop offset="49.8%" stop-color="#faf3aa"/><stop offset="100%" stop-color="#9c7945"/></linearGradient><path fill="url(#e)" d="M795.746 837.658c22.561.028 40.884-18.219 40.95-40.78a8 8 0 1 0-16 0c-.066 13.728-11.23 24.813-24.96 24.78a8 8 0 1 0 0 16Z" transform="translate(-272.06 -276.69)"/></g><rect width="566" height="383.635" x="84.306" y="173.056" fill="none" rx="0" ry="0" transform="translate(399.8 563.74)"/><g transform="translate(289.39 475.04)"><linearGradient id="f" x1="0" x2="1" y1="0" y2="0" gradientUnits="objectBoundingBox"><stop offset="0%" stop-color="#9c7945"/><stop offset="49.8%" stop-color="#faf3aa"/><stop offset="100%" stop-color="#9c7945"/></linearGradient><path fill="url(#f)" d="M656.936 908.773q-18.56 0-26.42-5.59-7.87-5.59-8.34-18.38-.95-23.01-.95-44.94t.95-44.95q.47-12.79 8.34-18.33 7.86-5.54 26.42-5.54 18.48 0 26.53 5.54t8.14 18.33q.57 23.11.57 44.99 0 21.89-.57 44.9-.09 12.79-8.14 18.38t-26.53 5.59m0-11.37q11.75 0 16.49-2.41 4.73-2.42 5.02-7.91 1.32-23.68 1.09-47.56-.24-23.87-1.09-46.79-.29-5.59-5.12-7.96t-16.39-2.37q-11.74 0-16.53 2.37-4.78 2.37-5.06 7.96-1.33 22.92-1.19 46.79.15 23.88 1.19 47.56.28 5.49 5.06 7.91 4.79 2.41 16.53 2.41" transform="translate(-289.39 -475.03)"/></g><path fill="url(#f)" d="M763.606 895.413v12.13h-55.04v-135.27h13.17v123.14Zm67.25 0v12.13h-56.93v-135.27h56.93v12.12h-43.76v48.88h40.83v12.13h-40.83v50.01Zm46.99 13.36q-18.57 0-26.43-5.59t-8.34-18.38q-.94-23.01-.94-44.94t.94-44.95q.48-12.79 8.34-18.33t26.43-5.54q18.47 0 26.52 5.54t8.15 18.33q.57 23.11.57 44.99 0 21.89-.57 44.9-.1 12.79-8.15 18.38t-26.52 5.59m0-11.37q11.74 0 16.48-2.41 4.74-2.42 5.02-7.91 1.33-23.68 1.09-47.56-.24-23.87-1.09-46.79-.28-5.59-5.12-7.96-4.83-2.37-16.38-2.37-11.75 0-16.53 2.37-4.79 2.37-5.07 7.96-1.33 22.92-1.18 46.79.14 23.88 1.18 47.56.28 5.49 5.07 7.91 4.78 2.41 16.53 2.41" transform="translate(0 .01)"/><path fill="url(#f)" d="M531.086 1073.183q-17.33 0-24.82-5.58-7.48-5.59-7.95-18.48-1.71-44.8 0-89.61.47-11.74 8.05-17.85t24.53-6.11q17.53 0 25.53 5.59 8 5.58 8.38 18.47.19 3.12.19 7.72 0 4.59-.14 9.19-.14 4.59-.24 7.81h-13.16q.19-6.16.23-13.45.05-7.29-.23-13.45-.1-5.68-4.69-8.15-4.6-2.46-15.87-2.46-10.32 0-14.73 2.46-4.4 2.47-4.69 8.15-1.51 46.89 0 93.87.29 5.59 4.69 8.1 4.41 2.51 14.92 2.51 11.84 0 16.63-2.51 4.78-2.51 5.06-8.1.29-6.63.05-14.25-.24-7.63-.52-14.26h13.45q.47 6.63.57 13.12.09 6.49-.38 13.21-.57 12.89-8.67 18.48-8.1 5.58-26.19 5.58m84.59 0q-18.56 0-26.43-5.58-7.86-5.59-8.33-18.38-.95-23.02-.95-44.95t.95-44.95q.47-12.78 8.33-18.33 7.87-5.54 26.43-5.54 18.47 0 26.53 5.54 8.05 5.55 8.14 18.33.57 23.12.57 45t-.57 44.9q-.09 12.79-8.14 18.38-8.06 5.58-26.53 5.58m0-11.36q11.75 0 16.48-2.42 4.74-2.41 5.02-7.91 1.33-23.68 1.09-47.55-.23-23.87-1.09-46.8-.28-5.58-5.11-7.95t-16.39-2.37q-11.74 0-16.53 2.37-4.78 2.37-5.07 7.95-1.32 22.93-1.18 46.8t1.18 47.55q.29 5.5 5.07 7.91 4.79 2.42 16.53 2.42"/><path fill="url(#f)" d="m679.336 1021.183.76 50.77h-12.89v-135.27h24.16l10.51 42.91 17.53 80.24h5.3l-2.18-73.7-.66-49.45h12.98v135.27h-24.82l-11.94-47.83-15.06-75.41h-5.68Zm103.82-72.37v123.14h-13.17v-123.14h-25.86v-12.13h64.98v12.13Z" transform="translate(0 .01)"/><path fill="url(#f)" d="M831.746 1021.273v50.68h-13.16v-135.27h31.35q16.86 0 24.58 5.5 7.72 5.49 8.57 18.19.95 10.6.86 19.41-.1 8.81-.86 17.81-.47 8.62-4.83 13.79-4.35 5.16-13.64 7.62l23.78 52.95h-14.4l-22.16-50.68Zm18.19-72.46h-18.19v60.34h17.81q10.71 0 15.39-2.65 4.69-2.66 5.07-8.24 1.42-19.33 0-38.56-.38-5.59-5.02-8.24t-15.06-2.65" transform="translate(-.01 .01)"/><path fill="url(#f)" d="M936.046 1073.183q-18.57 0-26.43-5.58-7.86-5.59-8.34-18.38-.94-23.02-.94-44.95t.94-44.95q.48-12.78 8.34-18.33 7.86-5.54 26.43-5.54 18.47 0 26.52 5.54 8.05 5.55 8.15 18.33.57 23.12.57 45t-.57 44.9q-.1 12.79-8.15 18.38-8.05 5.58-26.52 5.58m0-11.36q11.74 0 16.48-2.42 4.74-2.41 5.02-7.91 1.33-23.68 1.09-47.55t-1.09-46.8q-.28-5.58-5.12-7.95-4.83-2.37-16.38-2.37-11.75 0-16.53 2.37-4.79 2.37-5.07 7.95-1.33 22.93-1.18 46.8.14 23.87 1.18 47.55.28 5.5 5.07 7.91 4.78 2.42 16.53 2.42"/><path fill="url(#f)" d="M1042.706 1059.833v12.12h-55.04v-135.27h13.17v123.15Z" transform="translate(0 .01)"/><rect width="49" height="42.94" x="342.806" y="343.403" fill="none" rx="0" ry="0" transform="translate(400.37 97.54)"/><g transform="translate(388.22 95.86)"><linearGradient id="g" x1="0" x2="1" y1="0" y2="0" gradientUnits="objectBoundingBox"><stop offset="0%" stop-color="#9c7945"/><stop offset="49.8%" stop-color="#faf3aa"/><stop offset="100%" stop-color="#9c7945"/></linearGradient><path fill="url(#g)" d="M755.566 474.223q-3.63 0-5.17-1.1-1.54-1.09-1.64-3.6-.18-4.5-.18-8.8t.18-8.8q.1-2.51 1.64-3.59 1.54-1.09 5.17-1.09 3.62 0 5.2 1.09 1.58 1.08 1.59 3.59.12 4.52.12 8.81t-.12 8.79q-.01 2.51-1.59 3.6-1.58 1.1-5.2 1.1m0-2.23q2.3 0 3.23-.47t.98-1.55q.26-4.64.22-9.31-.05-4.68-.22-9.17-.05-1.1-1-1.56-.94-.46-3.21-.46-2.3 0-3.23.46-.94.46-1 1.56-.26 4.49-.23 9.17.03 4.67.23 9.31.06 1.08 1 1.55.93.47 3.23.47" transform="translate(-388.22 -95.86)"/></g><path fill="url(#g)" d="M779.486 474.223q-3.4 0-4.86-1.1-1.47-1.09-1.56-3.61-.33-8.78 0-17.56.09-2.3 1.58-3.49 1.48-1.2 4.8-1.2 3.44 0 5 1.09 1.57 1.1 1.65 3.62.03.61.03 1.51t-.03 1.8q-.02.9-.04 1.53h-2.58q.04-1.2.05-2.63 0-1.43-.05-2.64-.02-1.11-.92-1.59t-3.11-.48q-2.02 0-2.88.48-.87.48-.92 1.59-.3 9.19 0 18.39.05 1.1.92 1.59.86.49 2.92.49 2.32 0 3.26-.49.93-.49.99-1.59.05-1.3.01-2.79-.05-1.49-.1-2.79h2.63q.09 1.3.11 2.57t-.07 2.59q-.11 2.52-1.7 3.61-1.59 1.1-5.13 1.1"/></g><path fill="transparent" stroke="transparent" stroke-width="1.404" d="M352.528 250h794.944v1000H352.528z"/></g></svg>